<svg height="512" viewBox="0 0 64 64" width="512" xmlns="http://www.w3.org/2000/svg"><path d="m49.83 36.34-5.66 5.66-2.83 2.83-1.41 4.24 4.24-1.41 5.66-5.66 2.83-2.83z" fill="#bddbff"/><path d="m54.07 34.93a1.942 1.942 0 0 0 -1.07-.55 1.987 1.987 0 0 0 -1.76.55l-1.41 1.41 2.83 2.83.34-.34 1.07-1.07a1.992 1.992 0 0 0 0-2.83z" fill="#bddbff"/><path d="m53 13v16.35a14 14 0 0 0 -20 12.65h-28a2.006 2.006 0 0 1 -2-2v-27l22.4 10.75a6 6 0 0 0 5.2 0z" fill="#bddbff"/><path d="m53 10v3l-22.4 10.75a6 6 0 0 1 -5.2 0l-22.4-10.75v-3a2.006 2.006 0 0 1 2-2h46a2.006 2.006 0 0 1 2 2z" fill="#bddbff"/><g fill="#3d9ae2"><path d="m54 28.744v-18.744a3 3 0 0 0 -3-3h-46a3 3 0 0 0 -3 3v30a3 3 0 0 0 3 3h27.051a14.991 14.991 0 1 0 21.949-14.256zm-49-19.744h46a1 1 0 0 1 1 1v2.371l-21.836 10.482a4.985 4.985 0 0 1 -4.328 0l-21.836-10.482v-2.371a1 1 0 0 1 1-1zm-1 31v-25.411l20.971 10.066a6.966 6.966 0 0 0 6.058 0l20.971-10.066v13.286a14.941 14.941 0 0 0 -19.949 13.125h-27.051a1 1 0 0 1 -1-1zm43 15a13 13 0 1 1 13-13 13.015 13.015 0 0 1 -13 13z"/><path d="m10 47h2v2h-2z"/><path d="m14 47h10v2h-10z"/><path d="m8 36v-2h-2v2a3 3 0 0 0 3 3h2v-2h-2a1 1 0 0 1 -1-1z"/><path d="m6 30h2v2h-2z"/><path d="m50.535 34.222-9.9 9.9a.966.966 0 0 0 -.241.39l-1.414 4.243a1 1 0 0 0 .949 1.316.986.986 0 0 0 .316-.051l4.243-1.415a.985.985 0 0 0 .391-.241l9.9-9.9a3 3 0 1 0 -4.243-4.242zm-6.9 12.561-2.122.707.707-2.121 7.611-7.612 1.415 1.415zm9.732-9.733-.707.707-1.415-1.414.707-.707a1 1 0 0 1 1.415 1.414z"/></g></svg>